<mxfile host="app.diagrams.net" modified="2023-08-21T16:20:56.174Z" agent="Mozilla/5.0 (Windows NT 10.0; Win64; x64) AppleWebKit/537.36 (KHTML, like Gecko) Chrome/116.0.0.0 Safari/537.36" version="21.6.8" etag="ZU2KJW3NRvvAeMIaRuWU" type="github">
  <diagram name="第 1 页" id="3aV3CL3pW6N-fARod9_x">
    <mxGraphModel>
      <root>
        <mxCell id="0" />
        <mxCell id="1" parent="0" />
      </root>
    </mxGraphModel>
  </diagram>
</mxfile>
